PathFileType	4	(X/Y/Z)	C:\Users\italobelli\Desktop\GitHub\PTbot_officialCBL\Personal_Results\ABD21_noisy1.trc
DataRate	CameraRate	NumFrames	NumMarkers	Units	OrigDataRate	OrigDataStartFrame	OrigNumFrames
106.533333	106.533333	17	9	m	106.533333	701	800
Frame#	Time		gu		centelbow		EpL		centpxt8		centijc7		ij		ts		aa		ai
			X1	Y1	Z1	X2	Y2	Z2	X3	Y3	Z3	X4	Y4	Z4	X5	Y5	Z5	X6	Y6	Z6	X7	Y7	Z7	X8	Y8	Z8	X9	Y9	Z9

701	6.5707	-0.093506	-0.013878	0.16372	-0.13201	-0.26638	0.19265	-0.13346	-0.25871	0.22391	-0.046816	-0.15316	-0.008669	-0.046816	0.031938	-0.008669	0	0	0	-0.13183	0.026849	0.043048	-0.12511	0.022616	0.16205	-0.14532	-0.085842	0.045131
702	6.5801	-0.093477	-0.013881	0.1637	-0.1319	-0.26641	0.19251	-0.13334	-0.25874	0.22377	-0.046816	-0.15316	-0.008669	-0.046816	0.031938	-0.008669	0	0	0	-0.13184	0.026846	0.043032	-0.12507	0.022633	0.16203	-0.14533	-0.085844	0.045147
703	6.5895	-0.093448	-0.013884	0.16368	-0.1318	-0.26644	0.19236	-0.13322	-0.25878	0.22363	-0.046816	-0.15316	-0.008669	-0.046816	0.031938	-0.008669	0	0	0	-0.13185	0.026843	0.043014	-0.12503	0.022649	0.16201	-0.14535	-0.085846	0.04516
704	6.5989	-0.093419	-0.013887	0.16365	-0.13169	-0.26647	0.19222	-0.13309	-0.25881	0.22348	-0.046816	-0.15316	-0.008669	-0.046816	0.031938	-0.008669	0	0	0	-0.13185	0.02684	0.042994	-0.125	0.022666	0.16199	-0.14536	-0.085848	0.045171
705	6.6083	-0.093389	-0.013889	0.16363	-0.13158	-0.2665	0.19207	-0.13296	-0.25885	0.22334	-0.046816	-0.15316	-0.008669	-0.046816	0.031938	-0.008669	0	0	0	-0.13186	0.026837	0.042973	-0.12496	0.022682	0.16196	-0.14537	-0.085849	0.045178
706	6.6176	-0.09336	-0.013892	0.1636	-0.13146	-0.26653	0.19193	-0.13283	-0.25888	0.2232	-0.046816	-0.15316	-0.008669	-0.046816	0.031938	-0.008669	0	0	0	-0.13187	0.026834	0.042951	-0.12492	0.022698	0.16194	-0.14539	-0.085851	0.045184
707	6.627	-0.09333	-0.013895	0.16357	-0.13135	-0.26657	0.19178	-0.1327	-0.25892	0.22305	-0.046816	-0.15316	-0.008669	-0.046816	0.031938	-0.008669	0	0	0	-0.13188	0.026831	0.042928	-0.12488	0.022714	0.16191	-0.1454	-0.085853	0.045187
708	6.6364	-0.093301	-0.013898	0.16354	-0.13123	-0.2666	0.19164	-0.13257	-0.25896	0.22291	-0.046816	-0.15316	-0.008669	-0.046816	0.031938	-0.008669	0	0	0	-0.13188	0.026828	0.042904	-0.12485	0.02273	0.16189	-0.14541	-0.085855	0.045189
709	6.6458	-0.093271	-0.013901	0.1635	-0.13111	-0.26663	0.1915	-0.13243	-0.25899	0.22277	-0.046816	-0.15316	-0.008669	-0.046816	0.031938	-0.008669	0	0	0	-0.13189	0.026825	0.042879	-0.12481	0.022746	0.16186	-0.14542	-0.085857	0.045188
710	6.6552	-0.093242	-0.013904	0.16347	-0.13099	-0.26666	0.19136	-0.13229	-0.25903	0.22263	-0.046816	-0.15316	-0.008669	-0.046816	0.031938	-0.008669	0	0	0	-0.1319	0.026822	0.042852	-0.12477	0.022762	0.16183	-0.14544	-0.085859	0.045185
711	6.6646	-0.093213	-0.013907	0.16343	-0.13087	-0.26669	0.19122	-0.13215	-0.25906	0.2225	-0.046816	-0.15316	-0.008669	-0.046816	0.031938	-0.008669	0	0	0	-0.13191	0.026818	0.042826	-0.12474	0.022778	0.1618	-0.14545	-0.085861	0.045181
712	6.674	-0.093183	-0.01391	0.16339	-0.13074	-0.26672	0.19108	-0.13201	-0.25909	0.22236	-0.046816	-0.15316	-0.008669	-0.046816	0.031938	-0.008669	0	0	0	-0.13191	0.026815	0.042798	-0.1247	0.022793	0.16177	-0.14546	-0.085863	0.045176
713	6.6834	-0.093154	-0.013913	0.16336	-0.13062	-0.26675	0.19095	-0.13187	-0.25913	0.22223	-0.046816	-0.15316	-0.008669	-0.046816	0.031938	-0.008669	0	0	0	-0.13192	0.026812	0.04277	-0.12466	0.022809	0.16174	-0.14547	-0.085866	0.045169
714	6.6927	-0.093125	-0.013916	0.16332	-0.13049	-0.26678	0.19081	-0.13173	-0.25916	0.2221	-0.046816	-0.15316	-0.008669	-0.046816	0.031938	-0.008669	0	0	0	-0.13193	0.026809	0.042741	-0.12462	0.022825	0.16171	-0.14548	-0.085868	0.045161
715	6.7021	-0.093097	-0.013919	0.16327	-0.13037	-0.26681	0.19068	-0.13159	-0.25919	0.22197	-0.046816	-0.15316	-0.008669	-0.046816	0.031938	-0.008669	0	0	0	-0.13193	0.026806	0.042712	-0.12459	0.022841	0.16168	-0.14549	-0.08587	0.045152
716	6.7115	-0.093068	-0.013922	0.16323	-0.13024	-0.26684	0.19056	-0.13145	-0.25922	0.22184	-0.046816	-0.15316	-0.008669	-0.046816	0.031938	-0.008669	0	0	0	-0.13194	0.026802	0.042682	-0.12455	0.022856	0.16165	-0.14551	-0.085872	0.045142
717	6.7209	-0.09304	-0.013924	0.16319	-0.13012	-0.26686	0.19043	-0.1313	-0.25925	0.22172	-0.046816	-0.15316	-0.008669	-0.046816	0.031938	-0.008669	0	0	0	-0.13194	0.026799	0.042653	-0.12451	0.022872	0.16162	-0.14552	-0.085875	0.045132
